<svg width="40" height="40" viewBox="0 0 40 40" fill="none" xmlns="http://www.w3.org/2000/svg">
<path d="M26.9844 29V14.9844H16.0156V29H26.9844ZM26.9844 13.0156C27.5156 13.0156 27.9844 13.2188 28.3906 13.625C28.7969 14 29 14.4531 29 14.9844V29C29 29.5312 28.7969 30 28.3906 30.4062C27.9844 30.8125 27.5156 31.0156 26.9844 31.0156H16.0156C15.4844 31.0156 15.0156 30.8125 14.6094 30.4062C14.2031 30 14 29.5312 14 29V14.9844C14 14.4531 14.2031 14 14.6094 13.625C15.0156 13.2188 15.4844 13.0156 16.0156 13.0156H26.9844ZM23.9844 8.98438V11H11.9844V25.0156H10.0156V11C10.0156 10.4688 10.2031 10 10.5781 9.59375C10.9844 9.1875 11.4531 8.98438 11.9844 8.98438H23.9844Z" fill="#56606F"/>
</svg>
