<svg width="33" height="32" viewBox="0 0 33 32" fill="none" xmlns="http://www.w3.org/2000/svg">
<path d="M20 11.6797V10H10V11.6797H20ZM20 14.1797V12.5H10V14.1797H20ZM20 16.6797V15H10V16.6797H20ZM21.6797 6.67969C22.1224 6.67969 22.5 6.84896 22.8125 7.1875C23.151 7.5 23.3203 7.8776 23.3203 8.32031V18.3203C23.3203 18.763 23.151 19.1536 22.8125 19.4922C22.5 19.8307 22.1224 20 21.6797 20H10L6.67969 23.3203V8.32031C6.67969 7.8776 6.83594 7.5 7.14844 7.1875C7.48698 6.84896 7.8776 6.67969 8.32031 6.67969H21.6797Z" fill="#2070F7"/>
<circle cx="23" cy="21" r="8.5" fill="#27AE60"/>
<circle cx="23" cy="21" r="8.5" fill="#A5B0BF"/>
<circle cx="23" cy="21" r="8.5" stroke="white"/>
<path d="M21.5 23.0859L26.7969 17.7891L27.5 18.4922L21.5 24.4922L18.7109 21.7031L19.4141 21L21.5 23.0859Z" fill="#9B51E0"/>
<path d="M21.5 23.0859L26.7969 17.7891L27.5 18.4922L21.5 24.4922L18.7109 21.7031L19.4141 21L21.5 23.0859Z" fill="white"/>
</svg>
