<svg width="30" height="30" viewBox="0 0 30 30" fill="none" xmlns="http://www.w3.org/2000/svg">
<path d="M11.8945 18.1055C12.7539 18.9648 13.7891 19.3945 15 19.3945C16.2109 19.3945 17.2461 18.9648 18.1055 18.1055C18.9648 17.2461 19.3945 16.2109 19.3945 15C19.3945 13.7891 18.9648 12.7539 18.1055 11.8945C17.2461 11.0352 16.2109 10.6055 15 10.6055C13.7891 10.6055 12.7539 11.0352 11.8945 11.8945C11.0352 12.7539 10.6055 13.7891 10.6055 15C10.6055 16.2109 11.0352 17.2461 11.8945 18.1055ZM24.3164 16.2305L26.9531 18.2812C27.2266 18.4766 27.2656 18.75 27.0703 19.1016L24.5508 23.4375C24.3945 23.7109 24.1406 23.7891 23.7891 23.6719L20.6836 22.4414C19.8633 23.0273 19.1602 23.4375 18.5742 23.6719L18.1055 26.9531C18.0273 27.3047 17.832 27.4805 17.5195 27.4805H12.4805C12.168 27.4805 11.9727 27.3047 11.8945 26.9531L11.4258 23.6719C10.6836 23.3594 9.98047 22.9492 9.31641 22.4414L6.21094 23.6719C5.85938 23.7891 5.60547 23.7109 5.44922 23.4375L2.92969 19.1016C2.73438 18.75 2.77344 18.4766 3.04688 18.2812L5.68359 16.2305C5.64453 15.957 5.625 15.5469 5.625 15C5.625 14.4531 5.64453 14.043 5.68359 13.7695L3.04688 11.7188C2.77344 11.5234 2.73438 11.25 2.92969 10.8984L5.44922 6.5625C5.60547 6.28906 5.85938 6.21094 6.21094 6.32812L9.31641 7.55859C10.1367 6.97266 10.8398 6.5625 11.4258 6.32812L11.8945 3.04688C11.9727 2.69531 12.168 2.51953 12.4805 2.51953H17.5195C17.832 2.51953 18.0273 2.69531 18.1055 3.04688L18.5742 6.32812C19.3164 6.64062 20.0195 7.05078 20.6836 7.55859L23.7891 6.32812C24.1406 6.21094 24.3945 6.28906 24.5508 6.5625L27.0703 10.8984C27.2656 11.25 27.2266 11.5234 26.9531 11.7188L24.3164 13.7695C24.3555 14.043 24.375 14.4531 24.375 15C24.375 15.5469 24.3555 15.957 24.3164 16.2305Z" fill="#2070F7"/>
</svg>
