<svg width="20" height="24" viewBox="0 0 20 24" fill="none" xmlns="http://www.w3.org/2000/svg">
<path d="M7.35721 14.4844C8.04471 15.1719 8.87283 15.5156 9.84158 15.5156C10.8103 15.5156 11.6385 15.1719 12.326 14.4844C13.0135 13.7969 13.3572 12.9688 13.3572 12C13.3572 11.0312 13.0135 10.2031 12.326 9.51562C11.6385 8.82812 10.8103 8.48438 9.84158 8.48438C8.87283 8.48438 8.04471 8.82812 7.35721 9.51562C6.66971 10.2031 6.32596 11.0312 6.32596 12C6.32596 12.9688 6.66971 13.7969 7.35721 14.4844ZM17.2947 12.9844L19.4041 14.625C19.6228 14.7813 19.6541 15 19.4978 15.2813L17.4822 18.75C17.3572 18.9688 17.1541 19.0312 16.8728 18.9375L14.3885 17.9531C13.7322 18.4219 13.1697 18.75 12.701 18.9375L12.326 21.5625C12.2635 21.8438 12.1072 21.9844 11.8572 21.9844H7.82596C7.57596 21.9844 7.41971 21.8438 7.35721 21.5625L6.98221 18.9375C6.38846 18.6875 5.82596 18.3594 5.29471 17.9531L2.81033 18.9375C2.52908 19.0312 2.32596 18.9688 2.20096 18.75L0.185334 15.2812C0.0290842 15 0.0603342 14.7812 0.279084 14.625L2.38846 12.9844C2.35721 12.7656 2.34158 12.4375 2.34158 12C2.34158 11.5625 2.35721 11.2344 2.38846 11.0156L0.279084 9.375C0.0603342 9.21875 0.0290842 9 0.185334 8.71875L2.20096 5.25C2.32596 5.03125 2.52908 4.96875 2.81033 5.0625L5.29471 6.04688C5.95096 5.57812 6.51346 5.25 6.98221 5.0625L7.35721 2.4375C7.41971 2.15625 7.57596 2.01563 7.82596 2.01563L11.8572 2.01563C12.1072 2.01563 12.2635 2.15625 12.326 2.4375L12.701 5.0625C13.2947 5.3125 13.8572 5.64062 14.3885 6.04688L16.8728 5.0625C17.1541 4.96875 17.3572 5.03125 17.4822 5.25L19.4978 8.71875C19.6541 9 19.6228 9.21875 19.4041 9.375L17.2947 11.0156C17.326 11.2344 17.3416 11.5625 17.3416 12C17.3416 12.4375 17.326 12.7656 17.2947 12.9844Z" fill="white" fill-opacity="0.87"/>
<path d="M7.35721 14.4844C8.04471 15.1719 8.87283 15.5156 9.84158 15.5156C10.8103 15.5156 11.6385 15.1719 12.326 14.4844C13.0135 13.7969 13.3572 12.9688 13.3572 12C13.3572 11.0312 13.0135 10.2031 12.326 9.51562C11.6385 8.82812 10.8103 8.48438 9.84158 8.48438C8.87283 8.48438 8.04471 8.82812 7.35721 9.51562C6.66971 10.2031 6.32596 11.0312 6.32596 12C6.32596 12.9688 6.66971 13.7969 7.35721 14.4844ZM17.2947 12.9844L19.4041 14.625C19.6228 14.7813 19.6541 15 19.4978 15.2813L17.4822 18.75C17.3572 18.9688 17.1541 19.0312 16.8728 18.9375L14.3885 17.9531C13.7322 18.4219 13.1697 18.75 12.701 18.9375L12.326 21.5625C12.2635 21.8438 12.1072 21.9844 11.8572 21.9844H7.82596C7.57596 21.9844 7.41971 21.8438 7.35721 21.5625L6.98221 18.9375C6.38846 18.6875 5.82596 18.3594 5.29471 17.9531L2.81033 18.9375C2.52908 19.0312 2.32596 18.9688 2.20096 18.75L0.185334 15.2812C0.0290842 15 0.0603342 14.7812 0.279084 14.625L2.38846 12.9844C2.35721 12.7656 2.34158 12.4375 2.34158 12C2.34158 11.5625 2.35721 11.2344 2.38846 11.0156L0.279084 9.375C0.0603342 9.21875 0.0290842 9 0.185334 8.71875L2.20096 5.25C2.32596 5.03125 2.52908 4.96875 2.81033 5.0625L5.29471 6.04688C5.95096 5.57812 6.51346 5.25 6.98221 5.0625L7.35721 2.4375C7.41971 2.15625 7.57596 2.01563 7.82596 2.01563L11.8572 2.01563C12.1072 2.01563 12.2635 2.15625 12.326 2.4375L12.701 5.0625C13.2947 5.3125 13.8572 5.64062 14.3885 6.04688L16.8728 5.0625C17.1541 4.96875 17.3572 5.03125 17.4822 5.25L19.4978 8.71875C19.6541 9 19.6228 9.21875 19.4041 9.375L17.2947 11.0156C17.326 11.2344 17.3416 11.5625 17.3416 12C17.3416 12.4375 17.326 12.7656 17.2947 12.9844Z" fill="#556481" fill-opacity="0.34"/>
</svg>
