<svg width="30" height="30" viewBox="0 0 30 30" fill="none" xmlns="http://www.w3.org/2000/svg">
<path d="M6.26953 16.2305H23.7305L21.8555 10.6055H8.14453L6.26953 16.2305ZM20.5078 21.9727C20.8984 22.3242 21.3477 22.5 21.8555 22.5C22.3633 22.5 22.793 22.3242 23.1445 21.9727C23.5352 21.6211 23.7305 21.1719 23.7305 20.625C23.7305 20.0781 23.5352 19.6289 23.1445 19.2773C22.793 18.9258 22.3633 18.75 21.8555 18.75C21.3477 18.75 20.8984 18.9258 20.5078 19.2773C20.1562 19.6289 19.9805 20.0781 19.9805 20.625C19.9805 21.1719 20.1562 21.6211 20.5078 21.9727ZM6.79688 21.9727C7.1875 22.3242 7.63672 22.5 8.14453 22.5C8.65234 22.5 9.08203 22.3242 9.43359 21.9727C9.82422 21.6211 10.0195 21.1719 10.0195 20.625C10.0195 20.0781 9.82422 19.6289 9.43359 19.2773C9.08203 18.9258 8.65234 18.75 8.14453 18.75C7.63672 18.75 7.1875 18.9258 6.79688 19.2773C6.44531 19.6289 6.26953 20.0781 6.26953 20.625C6.26953 21.1719 6.44531 21.6211 6.79688 21.9727ZM23.6719 10.0195L26.25 17.5195V27.4805C26.25 27.832 26.1328 28.1445 25.8984 28.418C25.6641 28.6523 25.3711 28.7695 25.0195 28.7695H23.7305C23.3789 28.7695 23.0859 28.6523 22.8516 28.418C22.6172 28.1445 22.5 27.832 22.5 27.4805V26.25H7.5V27.4805C7.5 27.832 7.38281 28.1445 7.14844 28.418C6.91406 28.6523 6.62109 28.7695 6.26953 28.7695H4.98047C4.62891 28.7695 4.33594 28.6523 4.10156 28.418C3.86719 28.1445 3.75 27.832 3.75 27.4805V17.5195L6.32812 10.0195C6.60156 9.16016 7.20703 8.73047 8.14453 8.73047H21.8555C22.793 8.73047 23.3984 9.16016 23.6719 10.0195ZM10.0195 5.74219C9.66797 6.09375 9.23828 6.26953 8.73047 6.26953C8.22266 6.26953 7.77344 6.09375 7.38281 5.74219C7.03125 5.35156 6.85547 4.90234 6.85547 4.39453C6.85547 4.04297 7.01172 3.59375 7.32422 3.04688C7.63672 2.46094 7.94922 1.97266 8.26172 1.58203L8.73047 0.996094C9.98047 2.44141 10.6055 3.57422 10.6055 4.39453C10.6055 4.90234 10.4102 5.35156 10.0195 5.74219ZM16.3477 5.74219C15.9961 6.09375 15.5469 6.26953 15 6.26953C14.4531 6.26953 14.0039 6.09375 13.6523 5.74219C13.3008 5.35156 13.125 4.90234 13.125 4.39453C13.125 4.04297 13.2812 3.59375 13.5938 3.04688C13.9062 2.46094 14.2188 1.97266 14.5312 1.58203L15 0.996094C16.25 2.44141 16.875 3.57422 16.875 4.39453C16.875 4.90234 16.6992 5.35156 16.3477 5.74219ZM22.5586 5.74219C22.207 6.09375 21.7773 6.26953 21.2695 6.26953C20.7617 6.26953 20.3125 6.09375 19.9219 5.74219C19.5703 5.35156 19.3945 4.90234 19.3945 4.39453C19.3945 4.04297 19.5508 3.59375 19.8633 3.04688C20.1758 2.46094 20.4883 1.97266 20.8008 1.58203L21.2695 0.996094C22.5195 2.44141 23.1445 3.57422 23.1445 4.39453C23.1445 4.90234 22.9492 5.35156 22.5586 5.74219Z" fill="#FFFFFF"/>
</svg>