<svg width="30" height="30" viewBox="0 0 30 30" fill="none" xmlns="http://www.w3.org/2000/svg">
<path d="M12.3633 12.3633C13.1055 11.6211 13.9844 11.25 15 11.25C16.0156 11.25 16.8945 11.6211 17.6367 12.3633C18.3789 13.1055 18.75 13.9844 18.75 15C18.75 16.0156 18.3789 16.8945 17.6367 17.6367C16.8945 18.3789 16.0156 18.75 15 18.75C13.9844 18.75 13.1055 18.3789 12.3633 17.6367C11.6211 16.8945 11.25 16.0156 11.25 15C11.25 13.9844 11.6211 13.1055 12.3633 12.3633ZM10.5469 19.4531C11.7969 20.6641 13.2812 21.2695 15 21.2695C16.7188 21.2695 18.1836 20.6641 19.3945 19.4531C20.6445 18.2031 21.2695 16.7188 21.2695 15C21.2695 13.2813 20.6445 11.8164 19.3945 10.6055C18.1836 9.35547 16.7188 8.73047 15 8.73047C13.2812 8.73047 11.7969 9.35547 10.5469 10.6055C9.33594 11.8164 8.73047 13.2813 8.73047 15C8.73047 16.7188 9.33594 18.2031 10.5469 19.4531ZM6.62109 8.20312C9.12109 6.48438 11.9141 5.625 15 5.625C18.0859 5.625 20.8789 6.48438 23.3789 8.20312C25.8789 9.92187 27.6758 12.1875 28.7695 15C27.6758 17.8125 25.8789 20.0781 23.3789 21.7969C20.8789 23.5156 18.0859 24.375 15 24.375C11.9141 24.375 9.12109 23.5156 6.62109 21.7969C4.12109 20.0781 2.32422 17.8125 1.23047 15C2.32422 12.1875 4.12109 9.92187 6.62109 8.20312Z" fill="#2070F7"/>
</svg>
