<svg width="19" height="18" viewBox="0 0 19 18" fill="none" xmlns="http://www.w3.org/2000/svg">
<path d="M3.63672 7.78125C5.13672 10.6875 7.33984 12.8906 10.2461 14.3906L12.4492 12.1875C12.7617 11.875 13.1055 11.7969 13.4805 11.9531C14.6055 12.3281 15.793 12.5156 17.043 12.5156C17.3242 12.5156 17.5586 12.6094 17.7461 12.7969C17.9336 12.9844 18.0273 13.2188 18.0273 13.5V17.0156C18.0273 17.2969 17.9336 17.5312 17.7461 17.7188C17.5586 17.9062 17.3242 18 17.043 18C12.3555 18 8.33984 16.3438 4.99609 13.0312C1.68359 9.6875 0.0273438 5.67188 0.0273438 0.984375C0.0273438 0.703125 0.121094 0.46875 0.308594 0.28125C0.496094 0.09375 0.730469 0 1.01172 0H4.52734C4.80859 0 5.04297 0.09375 5.23047 0.28125C5.41797 0.46875 5.51172 0.703125 5.51172 0.984375C5.51172 2.23438 5.69922 3.42188 6.07422 4.54688C6.19922 4.95312 6.12109 5.29688 5.83984 5.57812L3.63672 7.78125Z" fill="#2070F7"/>
</svg>
