<svg width="30" height="30" viewBox="0 0 30 30" fill="none" xmlns="http://www.w3.org/2000/svg">
<path d="M8.37891 18.9258C10.6836 17.9883 12.8906 17.5195 15 17.5195C17.1094 17.5195 19.2969 17.9883 21.5625 18.9258C23.8672 19.8242 25.0195 21.0156 25.0195 22.5V25.0195H4.98047V22.5C4.98047 21.0156 6.11328 19.8242 8.37891 18.9258ZM18.5156 13.5352C17.5391 14.5117 16.3672 15 15 15C13.6328 15 12.4609 14.5117 11.4844 13.5352C10.5078 12.5586 10.0195 11.3867 10.0195 10.0195C10.0195 8.65234 10.5078 7.48047 11.4844 6.50391C12.4609 5.48828 13.6328 4.98047 15 4.98047C16.3672 4.98047 17.5391 5.48828 18.5156 6.50391C19.4922 7.48047 19.9805 8.65234 19.9805 10.0195C19.9805 11.3867 19.4922 12.5586 18.5156 13.5352Z" fill="#2070F7"/>
</svg>
