<svg width="30" height="30" viewBox="0 0 30 30" fill="none" xmlns="http://www.w3.org/2000/svg">
<path d="M13.2422 20.5078C13.75 21.0156 14.3359 21.2695 15 21.2695C15.6641 21.2695 16.25 21.0156 16.7578 20.5078C17.2656 20 17.5195 19.4141 17.5195 18.75C17.5195 18.0859 17.2656 17.5 16.7578 16.9922C16.25 16.4844 15.6641 16.2305 15 16.2305C14.3359 16.2305 13.75 16.4844 13.2422 16.9922C12.7344 17.5 12.4805 18.0859 12.4805 18.75C12.4805 19.4141 12.7344 20 13.2422 20.5078ZM11.25 11.25H18.75L15 5.74219L11.25 11.25ZM21.5039 11.25H27.4805C27.832 11.25 28.125 11.3672 28.3594 11.6016C28.6328 11.8359 28.7695 12.1289 28.7695 12.4805C28.3789 14.043 27.793 16.25 27.0117 19.1016C26.2305 21.9141 25.7422 23.6914 25.5469 24.4336C25.1953 25.6445 24.3945 26.25 23.1445 26.25H6.85547C5.60547 26.25 4.80469 25.6445 4.45312 24.4336L1.28906 12.832C1.25 12.7539 1.23047 12.6367 1.23047 12.4805C1.23047 12.1289 1.34766 11.8359 1.58203 11.6016C1.85547 11.3672 2.16797 11.25 2.51953 11.25H8.49609L13.9453 3.04688C14.1797 2.69531 14.5312 2.51953 15 2.51953C15.4688 2.51953 15.8203 2.69531 16.0547 3.04688L21.5039 11.25Z" fill="#2070F7"/>
</svg>
