<svg width="40" height="40" viewBox="0 0 40 40" fill="none" xmlns="http://www.w3.org/2000/svg">
<path d="M29 23V29H23L25.2969 26.7031L22.3906 23.8438L23.8438 22.3906L26.7031 25.2969L29 23ZM17 29H11L11 23L13.2969 25.2969L16.1562 22.3906L17.6094 23.8438L14.7031 26.7031L17 29ZM11 17V11L17 11L14.7031 13.2969L17.6094 16.1562L16.1562 17.6094L13.2969 14.7031L11 17ZM23 11H29V17L26.7031 14.7031L23.8438 17.6094L22.3906 16.1562L25.2969 13.2969L23 11Z" fill="white" fill-opacity="0.87"/>
<path d="M29 23V29H23L25.2969 26.7031L22.3906 23.8438L23.8438 22.3906L26.7031 25.2969L29 23ZM17 29H11L11 23L13.2969 25.2969L16.1562 22.3906L17.6094 23.8438L14.7031 26.7031L17 29ZM11 17V11L17 11L14.7031 13.2969L17.6094 16.1562L16.1562 17.6094L13.2969 14.7031L11 17ZM23 11H29V17L26.7031 14.7031L23.8438 17.6094L22.3906 16.1562L25.2969 13.2969L23 11Z" fill="#556481" fill-opacity="0.64"/>
</svg>
