<svg width="21" height="20" viewBox="0 0 21 20" fill="none" xmlns="http://www.w3.org/2000/svg">
<path d="M16.0273 6.01562V4H4.02734V6.01562H16.0273ZM16.0273 9.01562V7H4.02734V9.01562H16.0273ZM16.0273 12.0156V10H4.02734V12.0156H16.0273ZM18.043 0.015625C18.5742 0.015625 19.0273 0.21875 19.4023 0.625C19.8086 1 20.0117 1.45313 20.0117 1.98438V13.9844C20.0117 14.5156 19.8086 14.9844 19.4023 15.3906C19.0273 15.7969 18.5742 16 18.043 16H4.02734L0.0429688 19.9844V1.98438C0.0429688 1.45313 0.230469 1 0.605469 0.625C1.01172 0.21875 1.48047 0.015625 2.01172 0.015625H18.043Z" fill="#A5B0BF"/>
</svg>
