<svg width="30" height="30" viewBox="0 0 30 30" fill="none" xmlns="http://www.w3.org/2000/svg">
<path d="M8.78906 22.4414C10.5078 24.1602 12.5781 25.0195 15 25.0195C17.4219 25.0195 19.4727 24.1602 21.1523 22.4414C22.8711 20.7227 23.7305 18.6523 23.7305 16.2305C23.7305 13.8086 22.8711 11.7578 21.1523 10.0781C19.4727 8.35938 17.4219 7.5 15 7.5C12.5781 7.5 10.5078 8.35938 8.78906 10.0781C7.10938 11.7578 6.26953 13.8086 6.26953 16.2305C6.26953 18.6523 7.10938 20.7227 8.78906 22.4414ZM7.03125 8.32031C9.21875 6.09375 11.875 4.98047 15 4.98047C18.125 4.98047 20.7812 6.09375 22.9688 8.32031C25.1562 10.5078 26.25 13.1445 26.25 16.2305C26.25 19.3164 25.1562 21.9727 22.9688 24.1992C20.7812 26.3867 18.125 27.4805 15 27.4805C11.875 27.4805 9.21875 26.3867 7.03125 24.1992C4.84375 21.9727 3.75 19.3164 3.75 16.2305C3.75 13.1445 4.84375 10.5078 7.03125 8.32031ZM15.6445 10.0195V16.582L20.625 19.5117L19.6875 21.0352L13.7695 17.5195V10.0195H15.6445ZM9.84375 4.21875L4.10156 9.02344L2.51953 7.14844L8.26172 2.34375L9.84375 4.21875ZM27.4805 7.14844L25.8984 9.08203L20.1562 4.21875L21.7383 2.34375L27.4805 7.14844Z" fill="#2070F7"/>
</svg>
