<svg width="32" height="33" viewBox="0 0 32 33" fill="none" xmlns="http://www.w3.org/2000/svg">
<path d="M19.5 12.3463V10.6666H9.5V12.3463H19.5ZM19.5 14.8463V13.1666H9.5V14.8463H19.5ZM19.5 17.3463V15.6666H9.5V17.3463H19.5ZM21.1797 7.34631C21.6224 7.34631 22 7.51558 22.3125 7.85413C22.651 8.16663 22.8203 8.54423 22.8203 8.98694V18.9869C22.8203 19.4296 22.651 19.8203 22.3125 20.1588C22 20.4974 21.6224 20.6666 21.1797 20.6666H9.5L6.17969 23.9869V8.98694C6.17969 8.54423 6.33594 8.16663 6.64844 7.85413C6.98698 7.51558 7.3776 7.34631 7.82031 7.34631H21.1797Z" fill="#A5B0BF"/>
<path d="M30.5303 21.6666C30.5303 26.3757 26.8325 30.1666 22.303 30.1666C17.7736 30.1666 14.0758 26.3757 14.0758 21.6666C14.0758 16.9576 17.7736 13.1666 22.303 13.1666C26.8325 13.1666 30.5303 16.9576 30.5303 21.6666Z" fill="#1F6FF7" stroke="white"/>
<path d="M18.1429 25.4166V22.5065L24.3929 21.6666L18.1429 20.8268V17.9166L26.8929 21.6666L18.1429 25.4166Z" fill="#9B51E0"/>
<path d="M18.1429 25.4166V22.5065L24.3929 21.6666L18.1429 20.8268V17.9166L26.8929 21.6666L18.1429 25.4166Z" fill="white"/>
</svg>
