<svg width="32" height="32" viewBox="0 0 32 32" fill="none" xmlns="http://www.w3.org/2000/svg">
<path d="M19.5 11.6797V10H9.5V11.6797H19.5ZM19.5 14.1797V12.5H9.5V14.1797H19.5ZM19.5 16.6797V15H9.5V16.6797H19.5ZM21.1797 6.67969C21.6224 6.67969 22 6.84896 22.3125 7.1875C22.651 7.5 22.8203 7.8776 22.8203 8.32031V18.3203C22.8203 18.763 22.651 19.1536 22.3125 19.4922C22 19.8307 21.6224 20 21.1797 20H9.5L6.17969 23.3203V8.32031C6.17969 7.8776 6.33594 7.5 6.64844 7.1875C6.98698 6.84896 7.3776 6.67969 7.82031 6.67969H21.1797Z" fill="#A5B0BF"/>
<path d="M30.5303 21C30.5303 25.709 26.8325 29.5 22.303 29.5C17.7736 29.5 14.0758 25.709 14.0758 21C14.0758 16.291 17.7736 12.5 22.303 12.5C26.8325 12.5 30.5303 16.291 30.5303 21Z" fill="#27AE60"/>
<path d="M30.5303 21C30.5303 25.709 26.8325 29.5 22.303 29.5C17.7736 29.5 14.0758 25.709 14.0758 21C14.0758 16.291 17.7736 12.5 22.303 12.5C26.8325 12.5 30.5303 16.291 30.5303 21Z" fill="#A5B0BF"/>
<path d="M30.5303 21C30.5303 25.709 26.8325 29.5 22.303 29.5C17.7736 29.5 14.0758 25.709 14.0758 21C14.0758 16.291 17.7736 12.5 22.303 12.5C26.8325 12.5 30.5303 16.291 30.5303 21Z" stroke="white"/>
<path d="M20.803 23.0859L26.0999 17.7891L26.803 18.4922L20.803 24.4922L18.014 21.7031L18.7171 21L20.803 23.0859Z" fill="#9B51E0"/>
<path d="M20.803 23.0859L26.0999 17.7891L26.803 18.4922L20.803 24.4922L18.014 21.7031L18.7171 21L20.803 23.0859Z" fill="white"/>
</svg>
