<svg width="30" height="30" viewBox="0 0 30 30" fill="none" xmlns="http://www.w3.org/2000/svg">
<path d="M24.8945 2.25C25.6471 2.25 26.3112 2.53776 26.8867 3.11328C27.4622 3.6888 27.75 4.35286 27.75 5.10547V24.8945C27.75 25.6471 27.4622 26.3112 26.8867 26.8867C26.3112 27.4622 25.6471 27.75 24.8945 27.75H5.10547C4.30859 27.75 3.6224 27.4622 3.04688 26.8867C2.51562 26.3112 2.25 25.6471 2.25 24.8945V19.25H5.10547V24.8945H24.8945V5.10547H5.10547V10.75H2.25V5.10547C2.25 4.35286 2.51562 3.6888 3.04688 3.11328C3.6224 2.53776 4.30859 2.25 5.10547 2.25H24.8945ZM12.2773 20.1133L15.9297 16.3945H2.25V13.6055H15.9297L12.2773 9.88672L14.2695 7.89453L21.375 15L14.2695 22.1055L12.2773 20.1133Z" fill="#2070F7"/>
</svg>
