<svg width="40" height="40" viewBox="0 0 40 40" fill="none" xmlns="http://www.w3.org/2000/svg">
<path d="M26 11V14.9844H14V11H26ZM26.2812 19.7188C26.4688 19.9062 26.7031 20 26.9844 20C27.2656 20 27.5 19.9062 27.6875 19.7188C27.9062 19.5312 28.0156 19.2969 28.0156 19.0156C28.0156 18.7344 27.9062 18.5 27.6875 18.3125C27.5 18.0938 27.2656 17.9844 26.9844 17.9844C26.7031 17.9844 26.4688 18.0938 26.2812 18.3125C26.0938 18.5 26 18.7344 26 19.0156C26 19.2969 26.0938 19.5312 26.2812 19.7188ZM23.9844 26.9844V22.0156H16.0156V26.9844H23.9844ZM26.9844 16.0156C27.7969 16.0156 28.5 16.3125 29.0938 16.9062C29.6875 17.5 29.9844 18.2031 29.9844 19.0156V25.0156H26V29H14V25.0156H10.0156V19.0156C10.0156 18.2031 10.3125 17.5 10.9062 16.9062C11.5 16.3125 12.2031 16.0156 13.0156 16.0156H26.9844Z" fill="#56606F"/>
</svg>
