<svg width="40" height="46" viewBox="0 0 40 46" fill="none" xmlns="http://www.w3.org/2000/svg">
<path d="M23 20V16.0156H13.0156V20H23ZM17.8906 29.0938C18.4844 29.6875 19.1875 29.9844 20 29.9844C20.8125 29.9844 21.5156 29.6875 22.1094 29.0938C22.7031 28.5 23 27.7969 23 26.9844C23 26.1719 22.7031 25.4688 22.1094 24.875C21.5156 24.2812 20.8125 23.9844 20 23.9844C19.1875 23.9844 18.4844 24.2812 17.8906 24.875C17.2969 25.4688 17 26.1719 17 26.9844C17 27.7969 17.2969 28.5 17.8906 29.0938ZM25.0156 14L29 17.9844V29.9844C29 30.5156 28.7969 30.9844 28.3906 31.3906C27.9844 31.7969 27.5156 32 26.9844 32H13.0156C12.4531 32 11.9688 31.8125 11.5625 31.4375C11.1875 31.0312 11 30.5469 11 29.9844V16.0156C11 15.4531 11.1875 14.9844 11.5625 14.6094C11.9688 14.2031 12.4531 14 13.0156 14H25.0156Z" fill="#1F6FF7"/>
<path d="M23 20V16.0156H13.0156V20H23ZM17.8906 29.0938C18.4844 29.6875 19.1875 29.9844 20 29.9844C20.8125 29.9844 21.5156 29.6875 22.1094 29.0938C22.7031 28.5 23 27.7969 23 26.9844C23 26.1719 22.7031 25.4688 22.1094 24.875C21.5156 24.2812 20.8125 23.9844 20 23.9844C19.1875 23.9844 18.4844 24.2812 17.8906 24.875C17.2969 25.4688 17 26.1719 17 26.9844C17 27.7969 17.2969 28.5 17.8906 29.0938ZM25.0156 14L29 17.9844V29.9844C29 30.5156 28.7969 30.9844 28.3906 31.3906C27.9844 31.7969 27.5156 32 26.9844 32H13.0156C12.4531 32 11.9688 31.8125 11.5625 31.4375C11.1875 31.0312 11 30.5469 11 29.9844V16.0156C11 15.4531 11.1875 14.9844 11.5625 14.6094C11.9688 14.2031 12.4531 14 13.0156 14H25.0156Z" fill="white"/>
</svg>
