<svg width="16" height="16" viewBox="0 0 16 16" fill="none" xmlns="http://www.w3.org/2000/svg">
<path d="M0.320312 13.8203H13.6797V15.5H0.320312V13.8203ZM13.6797 4.67969V2.17969H12V4.67969H13.6797ZM13.6797 0.5C14.1484 0.5 14.5391 0.669271 14.8516 1.00781C15.1641 1.32031 15.3203 1.71094 15.3203 2.17969V4.67969C15.3203 5.1224 15.1641 5.51302 14.8516 5.85156C14.5391 6.16406 14.1484 6.32031 13.6797 6.32031H12V8.82031C12 9.73177 11.6745 10.526 11.0234 11.2031C10.3724 11.8542 9.59115 12.1797 8.67969 12.1797H3.67969C2.76823 12.1797 1.97396 11.8542 1.29688 11.2031C0.645833 10.526 0.320312 9.73177 0.320312 8.82031V0.5H13.6797Z" fill="#2070F7"/>
</svg>
