<svg width="18" height="18" viewBox="0 0 18 18" fill="none" xmlns="http://www.w3.org/2000/svg">
<path d="M11.5781 12.7891C10.8229 13.3099 9.96354 13.5703 9 13.5703C8.03646 13.5703 7.16406 13.3099 6.38281 12.7891C5.6276 12.2422 5.08073 11.5391 4.74219 10.6797H13.2578C12.9193 11.5391 12.3594 12.2422 11.5781 12.7891ZM6.92969 7.82812C6.69531 8.0625 6.40885 8.17969 6.07031 8.17969C5.73177 8.17969 5.43229 8.0625 5.17188 7.82812C4.9375 7.56771 4.82031 7.26823 4.82031 6.92969C4.82031 6.59115 4.9375 6.30469 5.17188 6.07031C5.43229 5.8099 5.73177 5.67969 6.07031 5.67969C6.40885 5.67969 6.69531 5.8099 6.92969 6.07031C7.1901 6.30469 7.32031 6.59115 7.32031 6.92969C7.32031 7.26823 7.1901 7.56771 6.92969 7.82812ZM12.7891 7.82812C12.5547 8.0625 12.2682 8.17969 11.9297 8.17969C11.5911 8.17969 11.2917 8.0625 11.0312 7.82812C10.7969 7.56771 10.6797 7.26823 10.6797 6.92969C10.6797 6.59115 10.7969 6.30469 11.0312 6.07031C11.2917 5.8099 11.5911 5.67969 11.9297 5.67969C12.2682 5.67969 12.5547 5.8099 12.7891 6.07031C13.0495 6.30469 13.1797 6.59115 13.1797 6.92969C13.1797 7.26823 13.0495 7.56771 12.7891 7.82812ZM4.27344 13.7266C5.60156 15.0286 7.17708 15.6797 9 15.6797C10.8229 15.6797 12.3854 15.0286 13.6875 13.7266C15.0156 12.3984 15.6797 10.8229 15.6797 9C15.6797 7.17708 15.0156 5.61458 13.6875 4.3125C12.3854 2.98438 10.8229 2.32031 9 2.32031C7.17708 2.32031 5.60156 2.98438 4.27344 4.3125C2.97135 5.61458 2.32031 7.17708 2.32031 9C2.32031 10.8229 2.97135 12.3984 4.27344 13.7266ZM3.10156 3.14062C4.74219 1.5 6.70833 0.679688 9 0.679688C11.2917 0.679688 13.2448 1.5 14.8594 3.14062C16.5 4.75521 17.3203 6.70833 17.3203 9C17.3203 11.2917 16.5 13.2578 14.8594 14.8984C13.2448 16.513 11.2917 17.3203 9 17.3203C6.70833 17.3203 4.74219 16.513 3.10156 14.8984C1.48698 13.2578 0.679688 11.2917 0.679688 9C0.679688 6.70833 1.48698 4.75521 3.10156 3.14062Z" fill="#2070F7"/>
</svg>
