<svg width="32" height="30" viewBox="0 0 32 30" fill="none" xmlns="http://www.w3.org/2000/svg">
<path d="M9.17969 15.8203H20.8203L19.5703 12.0703H10.4297L9.17969 15.8203ZM18.6719 19.6484C18.9323 19.8828 19.2318 20 19.5703 20C19.9089 20 20.1953 19.8828 20.4297 19.6484C20.6901 19.4141 20.8203 19.1146 20.8203 18.75C20.8203 18.3854 20.6901 18.0859 20.4297 17.8516C20.1953 17.6172 19.9089 17.5 19.5703 17.5C19.2318 17.5 18.9323 17.6172 18.6719 17.8516C18.4375 18.0859 18.3203 18.3854 18.3203 18.75C18.3203 19.1146 18.4375 19.4141 18.6719 19.6484ZM9.53125 19.6484C9.79167 19.8828 10.0911 20 10.4297 20C10.7682 20 11.0547 19.8828 11.2891 19.6484C11.5495 19.4141 11.6797 19.1146 11.6797 18.75C11.6797 18.3854 11.5495 18.0859 11.2891 17.8516C11.0547 17.6172 10.7682 17.5 10.4297 17.5C10.0911 17.5 9.79167 17.6172 9.53125 17.8516C9.29688 18.0859 9.17969 18.3854 9.17969 18.75C9.17969 19.1146 9.29688 19.4141 9.53125 19.6484ZM20.7812 11.6797L22.5 16.6797V23.3203C22.5 23.5547 22.4219 23.763 22.2656 23.9453C22.1094 24.1016 21.9141 24.1797 21.6797 24.1797H20.8203C20.5859 24.1797 20.3906 24.1016 20.2344 23.9453C20.0781 23.763 20 23.5547 20 23.3203V22.5H10V23.3203C10 23.5547 9.92188 23.763 9.76562 23.9453C9.60938 24.1016 9.41406 24.1797 9.17969 24.1797H8.32031C8.08594 24.1797 7.89062 24.1016 7.73438 23.9453C7.57812 23.763 7.5 23.5547 7.5 23.3203V16.6797L9.21875 11.6797C9.40104 11.1068 9.80469 10.8203 10.4297 10.8203H19.5703C20.1953 10.8203 20.599 11.1068 20.7812 11.6797ZM11.6797 8.82812C11.4453 9.0625 11.1589 9.17969 10.8203 9.17969C10.4818 9.17969 10.1823 9.0625 9.92188 8.82812C9.6875 8.56771 9.57031 8.26823 9.57031 7.92969C9.57031 7.69531 9.67448 7.39583 9.88281 7.03125C10.0911 6.64062 10.2995 6.3151 10.5078 6.05469L10.8203 5.66406C11.6536 6.6276 12.0703 7.38281 12.0703 7.92969C12.0703 8.26823 11.9401 8.56771 11.6797 8.82812ZM15.8984 8.82812C15.6641 9.0625 15.3646 9.17969 15 9.17969C14.6354 9.17969 14.3359 9.0625 14.1016 8.82812C13.8672 8.56771 13.75 8.26823 13.75 7.92969C13.75 7.69531 13.8542 7.39583 14.0625 7.03125C14.2708 6.64062 14.4792 6.3151 14.6875 6.05469L15 5.66406C15.8333 6.6276 16.25 7.38281 16.25 7.92969C16.25 8.26823 16.1328 8.56771 15.8984 8.82812ZM20.0391 8.82812C19.8047 9.0625 19.5182 9.17969 19.1797 9.17969C18.8411 9.17969 18.5417 9.0625 18.2812 8.82812C18.0469 8.56771 17.9297 8.26823 17.9297 7.92969C17.9297 7.69531 18.0339 7.39583 18.2422 7.03125C18.4505 6.64062 18.6589 6.3151 18.8672 6.05469L19.1797 5.66406C20.013 6.6276 20.4297 7.38281 20.4297 7.92969C20.4297 8.26823 20.2995 8.56771 20.0391 8.82812Z" fill="#2070F7"/>
<circle cx="23" cy="21" r="8.5" fill="#1F6FF7"/>
<circle cx="23" cy="21" r="8.5" fill="#56606F"/>
<circle cx="23" cy="21" r="8.5" stroke="white"/>
<path d="M24.541 23.2422H21.459L20.873 25H19.0039L22.1797 16.4688H23.8086L27.002 25H25.1328L24.541 23.2422ZM21.9336 21.8184H24.0664L22.9941 18.625L21.9336 21.8184Z" fill="#9B51E0"/>
<path d="M24.541 23.2422H21.459L20.873 25H19.0039L22.1797 16.4688H23.8086L27.002 25H25.1328L24.541 23.2422ZM21.9336 21.8184H24.0664L22.9941 18.625L21.9336 21.8184Z" fill="white"/>
</svg>
