<svg width="30" height="30" viewBox="0 0 30 30" fill="none" xmlns="http://www.w3.org/2000/svg">
<path d="M15 9.25781L13.0859 11.1328L11.9141 9.96094L15 6.875L19.7266 11.6016C20.7161 12.5911 21.3281 13.7891 21.5625 15.1953C21.7969 16.5755 21.6276 17.8776 21.0547 19.1016L15 13.0859V9.25781ZM15 21.3281V17.3047L11.0156 13.3203C10.3385 14.2057 10 15.2083 10 16.3281C10 17.6823 10.4948 18.8542 11.4844 19.8438C12.474 20.8333 13.6458 21.3281 15 21.3281ZM22.2266 22.3828L22.5 22.6953L21.4453 23.75L19.1797 21.4844C17.9557 22.474 16.5625 22.9688 15 22.9688C13.151 22.9688 11.5755 22.3177 10.2734 21.0156C9.07552 19.7917 8.42448 18.3333 8.32031 16.6406C8.24219 14.9219 8.73698 13.4115 9.80469 12.1094L7.5 9.80469L8.55469 8.75C16.3411 16.5365 20.8984 21.0807 22.2266 22.3828Z" fill="#2070F7"/>
</svg>
